<svg id="replace" xmlns="http://www.w3.org/2000/svg" viewBox="0 0 56.52 88">
  <path d="M22.7,23.31,37,37.49l13.88-14-4.33-4.32-6.44,6.33v-10A3.38,3.38,0,0,1,41,13.15a2.85,2.85,0,0,1,2.21-1h9.56V6H43.21a9.44,9.44,0,0,0-6.58,2.82A8.58,8.58,0,0,0,34,15.47v10l-6.84-6.64ZM64.63,34.57h.1a5.49,5.49,0,0,0,5,2.92,6.92,6.92,0,0,0,5.94-3.17,14.43,14.43,0,0,0,2.21-8.4A13.24,13.24,0,0,0,76,18.33a6.23,6.23,0,0,0-5.43-2.76,6.35,6.35,0,0,0-5.84,3.62h-.1V6H59.1V37h5.53Zm-.1-6.73V25.72A6.3,6.3,0,0,1,65.59,22a3.36,3.36,0,0,1,2.87-1.46A3.24,3.24,0,0,1,70,20.9,2.74,2.74,0,0,1,71.17,22a6.87,6.87,0,0,1,1,4,8.84,8.84,0,0,1-1.11,4.82,2.89,2.89,0,0,1-1.21,1.26,3.41,3.41,0,0,1-1.71.45,3.07,3.07,0,0,1-2.61-1.41A5.53,5.53,0,0,1,64.53,27.84ZM59.1,80a14.16,14.16,0,0,1-7,1.41,11.11,11.11,0,0,1-8.6-3.27,11.94,11.94,0,0,1-3.26-8.7q0-6,3.52-9.6a12.65,12.65,0,0,1,9.45-3.57,12.9,12.9,0,0,1,5.93,1.2v6.24a8,8,0,0,0-5-1.71,6.4,6.4,0,0,0-4.82,1.86A7,7,0,0,0,47.44,69a7,7,0,0,0,1.71,5,6.2,6.2,0,0,0,4.72,1.81A9,9,0,0,0,59,74.1V80ZM27.62,43.73l-6.23,6.33V87.78L27.62,94H71.67l6.24-6.23V50.06l-6.24-6.33Zm0,6.33H71.67V87.78h-44Z" transform="translate(-21.39 -6.01)"/>
</svg>
