<svg id="wholeword" xmlns="http://www.w3.org/2000/svg" viewBox="0 0 100 100">
  <g>
    <path d="M39.87,83.05A10.84,10.84,0,0,1,39,79.62a14.3,14.3,0,0,1-10.19,4,13.39,13.39,0,0,1-8.68-2.72A8.48,8.48,0,0,1,16.75,74,9,9,0,0,1,21,66.13q4.24-2.82,12-2.81h5.95V60.76A5.94,5.94,0,0,0,37,56.11a8.2,8.2,0,0,0-5.65-1.73,9.54,9.54,0,0,0-5.49,1.5,4.36,4.36,0,0,0-2.22,3.65H17.48a7.24,7.24,0,0,1,1.9-4.71,13,13,0,0,1,5.16-3.6A18.89,18.89,0,0,1,31.7,49.9c4.12,0,7.36.94,9.69,2.81A9.76,9.76,0,0,1,45,60.46v15a16.81,16.81,0,0,0,1.26,7.13v.48ZM29.72,78.81a11.57,11.57,0,0,0,5.45-1.35,8.65,8.65,0,0,0,3.74-3.52V67.26H34.12q-11.25,0-11.25,6a4.86,4.86,0,0,0,1.92,4.09A7.82,7.82,0,0,0,29.72,78.81Z"/>
    <path d="M84.92,67.14q0,7.45-3.77,12A12.49,12.49,0,0,1,71,83.65q-6.78,0-10.49-4.36l-.29,3.76H54.62V36.84h6.12V54.08Q64.44,49.9,71,49.9A12.58,12.58,0,0,1,81.2,54.38q3.72,4.48,3.72,12.28ZM78.8,66.5c0-3.79-.8-6.71-2.41-8.78a8.28,8.28,0,0,0-7-3.1,9.08,9.08,0,0,0-8.7,5.12V73.82a9.35,9.35,0,0,0,8.77,5.11,8.24,8.24,0,0,0,6.85-3.1Q78.8,72.74,78.8,66.5Z"/>
  </g>
  <rect x="5" y="87" width="91" height="7"/>
  <rect x="89" y="77" width="7" height="15"/>
  <rect x="5" y="77" width="7" height="17"/>
</svg>
