<svg id="matchcase" xmlns="http://www.w3.org/2000/svg" viewBox="0 0 100 100">
  <g>
    <path d="M43.33,71.59H23.15L18.62,83.05H12.07l18.39-43.8H36l18.42,43.8H47.93ZM25.07,66.87H41.44l-8.2-20.49Z"/>
    <path d="M82.06,83.05a10.84,10.84,0,0,1-.86-3.43,14.29,14.29,0,0,1-10.18,4,13.42,13.42,0,0,1-8.69-2.72A8.48,8.48,0,0,1,58.94,74a9,9,0,0,1,4.25-7.9q4.26-2.82,12-2.81H81.1V60.76a6,6,0,0,0-1.91-4.65,8.22,8.22,0,0,0-5.66-1.73A9.58,9.58,0,0,0,68,55.88a4.36,4.36,0,0,0-2.22,3.65H59.67a7.24,7.24,0,0,1,1.9-4.71,13,13,0,0,1,5.16-3.6,18.89,18.89,0,0,1,7.16-1.32q6.19,0,9.7,2.81a9.75,9.75,0,0,1,3.63,7.75v15a16.81,16.81,0,0,0,1.26,7.13v.48ZM71.91,78.81a11.61,11.61,0,0,0,5.46-1.35,8.63,8.63,0,0,0,3.73-3.52V67.26H76.31q-11.25,0-11.25,6A4.86,4.86,0,0,0,67,77.33,7.82,7.82,0,0,0,71.91,78.81Z"/>
  </g>
</svg>
