<svg id="replaceall" xmlns="http://www.w3.org/2000/svg" viewBox="0 0 81.76 88">
  <path d="M69.11,16.57c.94-1.94,2.21-2.92,3.82-2.92a4.1,4.1,0,0,1,3.72,2.22A12.09,12.09,0,0,1,78,22a12.78,12.78,0,0,1-1.51,6.64,4.45,4.45,0,0,1-3.92,2.51,3.61,3.61,0,0,1-3.42-2.31h0v1.91H65.39V6h3.72V16.57ZM69,23.51a4.23,4.23,0,0,0,.6,2.57,2.15,2.15,0,0,0,1.91,1.15,2.12,2.12,0,0,0,1.91-1.36A8.53,8.53,0,0,0,74.14,22a6.74,6.74,0,0,0-.66-3.22,2,2,0,0,0-1.81-1.2,2.33,2.33,0,0,0-2,1.2,5.33,5.33,0,0,0-.7,3ZM22.14,48.15,8.77,34.77l4.12-4.12,6.34,6.24V27.43a8.42,8.42,0,0,1,2.56-6.18A8.81,8.81,0,0,1,28,18.58H42.76v5.74H28a3.09,3.09,0,0,0-2.07,1,3,3,0,0,0-.85,2.11v9.46L31,31l4.13,4.13L22,48.15ZM55,30.75h4V20q0-7.63-5.93-7.64a9.13,9.13,0,0,0-2.82.5,7.66,7.66,0,0,0-2.41,1v4.22a7.07,7.07,0,0,1,4.68-1.91c1.64,0,2.46,1,2.46,2.92l-3.72.6q-4.83.81-4.83,6a6.47,6.47,0,0,0,1.16,4,3.53,3.53,0,0,0,3.17,1.4q2.71,0,4.12-3H55Zm0-8.55v1.21a4.25,4.25,0,0,1-.65,2.67,2.35,2.35,0,0,1-2.07,1.15A1.45,1.45,0,0,1,51,26.68a2.35,2.35,0,0,1-.56-1.56,2.2,2.2,0,0,1,2.12-2.41ZM40.25,81H36.12V78.42h0q-1.41,3-4.12,3A3.52,3.52,0,0,1,28.83,80a6.42,6.42,0,0,1-1.16-4q0-5.24,4.73-6l3.82-.6c0-2-.84-3-2.51-3a6.91,6.91,0,0,0-4.73,2V64.14a9.18,9.18,0,0,1,2.47-1,10,10,0,0,1,2.86-.46q5.94,0,5.94,7.65Zm-4-7.34V72.49l-2.51.5a2.2,2.2,0,0,0-2.11,2.42A2.42,2.42,0,0,0,32.1,77a1.35,1.35,0,0,0,1.31.56,2.27,2.27,0,0,0,2-1.06,4.87,4.87,0,0,0,.7-2.76Zm18.21,7.74a8.75,8.75,0,0,0,4.62-1V75.91a5.33,5.33,0,0,1-3.42,1.36,3.77,3.77,0,0,1-3.11-1.36,5.65,5.65,0,0,1-1.21-3.82,5.89,5.89,0,0,1,1.21-3.88,3.69,3.69,0,0,1,3.11-1.4,5.26,5.26,0,0,1,3.42,1.35V63.44a7.23,7.23,0,0,0-3.92-.81,8,8,0,0,0-6.29,2.67,10.47,10.47,0,0,0-2.36,7.19A9.39,9.39,0,0,0,48.69,79,7.37,7.37,0,0,0,54.43,81.44ZM8.77,56.3l6.33-6.24H71.62L78,56.3V87.78L71.62,94H15.1L8.77,87.78Zm6.33,0V87.78H71.62V56.3ZM33.91,43.73l6.34-6.24h44l6.33,6.24V75.2L84.2,81.44V43.73Z" transform="translate(-8.77 -6.01)"/>
</svg>
